<svg width="186" height="186" viewBox="0 0 186 186" fill="none" xmlns="http://www.w3.org/2000/svg">
<path d="M161.743 133.687L140.74 97.4175C145.038 89.5242 147.277 80.675 147.25 71.6875C147.25 57.2995 141.534 43.5008 131.361 33.327C121.187 23.1531 107.388 17.4375 93.0001 17.4375C78.6121 17.4375 64.8134 23.1531 54.6395 33.327C44.4657 43.5008 38.7501 57.2995 38.7501 71.6875C38.7234 80.675 40.9623 89.5242 45.2601 97.4175L24.2576 133.687C23.5761 134.868 23.2179 136.207 23.2192 137.57C23.2206 138.933 23.5814 140.272 24.2652 141.451C24.9491 142.63 25.9318 143.608 27.1143 144.286C28.2967 144.964 29.6371 145.318 31.0001 145.312H53.2426L64.5576 164.377C64.939 165.009 65.4088 165.583 65.9526 166.082C67.3893 167.467 69.3047 168.245 71.3001 168.252H72.3851C73.5551 168.092 74.673 167.667 75.6536 167.009C76.6341 166.351 77.4512 165.477 78.0426 164.455L93.0001 138.725L107.958 164.687C108.558 165.695 109.379 166.554 110.359 167.198C111.339 167.842 112.452 168.256 113.615 168.407H114.7C116.722 168.42 118.669 167.641 120.125 166.238C120.644 165.764 121.088 165.216 121.443 164.61L132.758 145.545H155C156.366 145.55 157.709 145.195 158.893 144.514C160.077 143.834 161.06 142.853 161.743 141.67C162.467 140.465 162.849 139.085 162.849 137.679C162.849 136.273 162.467 134.893 161.743 133.687ZM71.2226 145.545L64.3251 133.997C63.6459 132.852 62.6829 131.9 61.5291 131.235C60.3752 130.57 59.0694 130.214 57.7376 130.2H44.3301L55.4126 110.98C63.0442 118.334 72.6627 123.291 83.0801 125.24L71.2226 145.545ZM93.0001 110.437C85.3361 110.437 77.8441 108.165 71.4717 103.907C65.0993 99.649 60.1326 93.5971 57.1997 86.5165C54.2668 79.4358 53.4995 71.6445 54.9946 64.1277C56.4898 56.611 60.1804 49.7064 65.5997 44.2871C71.019 38.8678 77.9236 35.1772 85.4403 33.6821C92.9571 32.1869 100.748 32.9543 107.829 35.8872C114.91 38.8201 120.962 43.7867 125.22 50.1592C129.477 56.5316 131.75 64.0235 131.75 71.6875C131.75 81.9646 127.668 91.8208 120.4 99.0879C113.133 106.355 103.277 110.437 93.0001 110.437ZM128.263 130.2C126.931 130.214 125.625 130.57 124.471 131.235C123.317 131.9 122.354 132.852 121.675 133.997L114.778 145.545L102.998 125.007C113.379 123.019 122.961 118.066 130.588 110.747L141.67 129.967L128.263 130.2Z" fill="white"/>
<path d="M78.4204 91V84.9062L92.6587 71.7227C93.8696 70.5508 94.8853 69.4961 95.7056 68.5586C96.5389 67.6211 97.1704 66.7031 97.6001 65.8047C98.0298 64.8932 98.2446 63.9102 98.2446 62.8555C98.2446 61.6836 97.9777 60.6745 97.4438 59.8281C96.91 58.9687 96.1808 58.3112 95.2563 57.8555C94.3319 57.3867 93.2837 57.1523 92.1118 57.1523C90.8879 57.1523 89.8201 57.3997 88.9087 57.8945C87.9972 58.3893 87.2941 59.099 86.7993 60.0234C86.3045 60.9479 86.0571 62.0482 86.0571 63.3242H78.0298C78.0298 60.707 78.6222 58.4349 79.8071 56.5078C80.992 54.5807 82.6522 53.0898 84.7876 52.0352C86.923 50.9805 89.384 50.4531 92.1704 50.4531C95.035 50.4531 97.5285 50.9609 99.6509 51.9766C101.786 52.9792 103.446 54.3724 104.631 56.1562C105.816 57.9401 106.409 59.9844 106.409 62.2891C106.409 63.7995 106.109 65.2904 105.51 66.7617C104.924 68.2331 103.876 69.8672 102.366 71.6641C100.855 73.4479 98.7264 75.5898 95.979 78.0898L90.1392 83.8125V84.0859H106.936V91H78.4204Z" fill="white"/>
</svg>
