<svg width="186" height="186" viewBox="0 0 186 186" fill="none" xmlns="http://www.w3.org/2000/svg">
<path d="M161.743 133.687L140.74 97.4175C145.038 89.5242 147.277 80.675 147.25 71.6875C147.25 57.2995 141.534 43.5008 131.361 33.327C121.187 23.1531 107.388 17.4375 93.0001 17.4375C78.6121 17.4375 64.8134 23.1531 54.6395 33.327C44.4657 43.5008 38.7501 57.2995 38.7501 71.6875C38.7234 80.675 40.9623 89.5242 45.2601 97.4175L24.2576 133.687C23.5761 134.868 23.2179 136.207 23.2192 137.57C23.2206 138.933 23.5814 140.272 24.2652 141.451C24.9491 142.63 25.9318 143.608 27.1143 144.286C28.2967 144.964 29.6371 145.318 31.0001 145.312H53.2426L64.5576 164.377C64.939 165.009 65.4088 165.583 65.9526 166.082C67.3893 167.467 69.3047 168.245 71.3001 168.252H72.3851C73.5551 168.092 74.673 167.667 75.6536 167.009C76.6341 166.351 77.4512 165.477 78.0426 164.455L93.0001 138.725L107.958 164.687C108.558 165.695 109.379 166.554 110.359 167.198C111.339 167.842 112.452 168.256 113.615 168.407H114.7C116.722 168.42 118.669 167.641 120.125 166.238C120.644 165.764 121.088 165.216 121.443 164.61L132.758 145.545H155C156.366 145.55 157.709 145.195 158.893 144.514C160.077 143.834 161.06 142.853 161.743 141.67C162.467 140.465 162.849 139.085 162.849 137.679C162.849 136.273 162.467 134.893 161.743 133.687ZM71.2226 145.545L64.3251 133.997C63.6459 132.852 62.6829 131.9 61.5291 131.235C60.3752 130.57 59.0694 130.214 57.7376 130.2H44.3301L55.4126 110.98C63.0442 118.334 72.6627 123.291 83.0801 125.24L71.2226 145.545ZM93.0001 110.437C85.3361 110.437 77.8441 108.165 71.4717 103.907C65.0993 99.649 60.1326 93.5971 57.1997 86.5165C54.2668 79.4358 53.4995 71.6445 54.9946 64.1277C56.4898 56.611 60.1804 49.7064 65.5997 44.2871C71.019 38.8678 77.9236 35.1772 85.4403 33.6821C92.9571 32.1869 100.748 32.9543 107.829 35.8872C114.91 38.8201 120.962 43.7867 125.22 50.1592C129.477 56.5316 131.75 64.0235 131.75 71.6875C131.75 81.9646 127.668 91.8208 120.4 99.0879C113.133 106.355 103.277 110.437 93.0001 110.437ZM128.263 130.2C126.931 130.214 125.625 130.57 124.471 131.235C123.317 131.9 122.354 132.852 121.675 133.997L114.778 145.545L102.998 125.007C113.379 123.019 122.961 118.066 130.588 110.747L141.67 129.967L128.263 130.2Z" fill="white"/>
<path d="M93.3999 93.5469C90.4832 93.5469 87.8856 93.0456 85.6069 92.043C83.3413 91.0273 81.5509 89.6341 80.2358 87.8633C78.9338 86.0794 78.2632 84.0221 78.2241 81.6914H86.7397C86.7918 82.668 87.1108 83.5273 87.6968 84.2695C88.2957 84.9987 89.09 85.5651 90.0796 85.9688C91.0692 86.3724 92.1825 86.5742 93.4194 86.5742C94.7085 86.5742 95.8478 86.3464 96.8374 85.8906C97.827 85.4349 98.6017 84.8034 99.1616 83.9961C99.7215 83.1888 100.001 82.2578 100.001 81.2031C100.001 80.1354 99.702 79.1914 99.103 78.3711C98.5171 77.5378 97.6707 76.8867 96.564 76.418C95.4702 75.9492 94.1681 75.7148 92.6577 75.7148H88.9272V69.5039H92.6577C93.9338 69.5039 95.0601 69.2826 96.0366 68.8398C97.0262 68.3971 97.7944 67.7852 98.3413 67.0039C98.8882 66.2096 99.1616 65.2852 99.1616 64.2305C99.1616 63.2279 98.9207 62.349 98.439 61.5937C97.9702 60.8255 97.3062 60.2266 96.4468 59.7969C95.6004 59.3672 94.6108 59.1523 93.478 59.1523C92.3322 59.1523 91.284 59.3607 90.3335 59.7773C89.383 60.181 88.6213 60.7604 88.0483 61.5156C87.4754 62.2708 87.1694 63.1562 87.1304 64.1719H79.0249C79.064 61.8672 79.7215 59.8359 80.9976 58.0781C82.2736 56.3203 83.9924 54.9466 86.1538 53.957C88.3283 52.9544 90.7827 52.4531 93.5171 52.4531C96.2775 52.4531 98.6929 52.9544 100.763 53.957C102.833 54.9596 104.442 56.3138 105.587 58.0195C106.746 59.7122 107.319 61.6133 107.306 63.7227C107.319 65.9622 106.623 67.8307 105.216 69.3281C103.823 70.8255 102.007 71.776 99.7671 72.1797V72.4922C102.71 72.8698 104.949 73.8919 106.486 75.5586C108.035 77.2122 108.804 79.2826 108.791 81.7695C108.804 84.0482 108.146 86.0729 106.818 87.8438C105.503 89.6146 103.686 91.0078 101.369 92.0234C99.0509 93.0391 96.3947 93.5469 93.3999 93.5469Z" fill="white"/>
</svg>
